HIERARCHY
ROOT hip
{
	OFFSET 0.000000 0.000000 0.000000 
	CHANNELS 6 Xposition Yposition Zposition Xrotation Zrotation Yrotation
	JOINT abdomen
	{
		OFFSET 0.000000 3.402643 0.000000 
		CHANNELS 3 Xrotation Zrotation Yrotation
		JOINT chest
		{
			OFFSET 0.000000 8.438565 -0.680529 
			CHANNELS 3 Xrotation Zrotation Yrotation
			JOINT neck
			{
				OFFSET 0.000000 10.207942 -0.272212 
				CHANNELS 3 Xrotation Zrotation Yrotation
				JOINT head
				{
					OFFSET 0.000000 3.130431 0.000000 
					CHANNELS 3 Xrotation Zrotation Yrotation
					End Site
					{
						OFFSET 0.000000 3.130435 0.000000 
					}
				}
			}
			JOINT lCollar
			{
				OFFSET 3.470700 6.669187 -0.816635 
				CHANNELS 3 Yrotation Zrotation Xrotation
				JOINT lShldr
				{
					OFFSET 3.198488 0.000000 0.000000 
					CHANNELS 3 Zrotation Yrotation Xrotation
					JOINT lForeArm
					{
						OFFSET 10.139888 0.000000 0.000000 
						CHANNELS 3 Yrotation Zrotation Xrotation
						JOINT lHand
						{
							OFFSET 8.370511 0.000000 0.000000 
							CHANNELS 3 Zrotation Yrotation Xrotation
							End Site
							{
								OFFSET 4.083176 0.000000 0.000000 
							}
						}
					}
				}
			}
			JOINT rCollar
			{
				OFFSET -3.470700 6.669187 -0.816635 
				CHANNELS 3 Yrotation Zrotation Xrotation
				JOINT rShldr
				{
					OFFSET -3.198488 0.000000 0.000000 
					CHANNELS 3 Zrotation Yrotation Xrotation
					JOINT rForeArm
					{
						OFFSET -10.139888 0.000000 0.000000 
						CHANNELS 3 Yrotation Zrotation Xrotation
						JOINT rHand
						{
							OFFSET -8.370511 0.000000 0.000000 
							CHANNELS 3 Zrotation Yrotation Xrotation
							End Site
							{
								OFFSET -4.083176 0.000000 0.000000 
							}
						}
					}
				}
			}
		}
	}
	JOINT lThigh
	{
		OFFSET 5.308129 -1.633274 1.361059 
		CHANNELS 3 Xrotation Zrotation Yrotation
		JOINT lShin
		{
			OFFSET -2.041588 -20.007561 0.000000 
			CHANNELS 3 Xrotation Zrotation Yrotation
			JOINT lFoot
			{
				OFFSET 0.000000 -19.190928 -1.224953 
				CHANNELS 3 Xrotation Yrotation Zrotation
				End Site
				{
					OFFSET 0.000000 -2.449906 4.627600 
				}
			}
		}
	}
	JOINT rThigh
	{
		OFFSET -5.308129 -1.633274 1.361059 
		CHANNELS 3 Xrotation Zrotation Yrotation
		JOINT rShin
		{
			OFFSET 2.041588 -20.007561 0.000000 
			CHANNELS 3 Xrotation Zrotation Yrotation
			JOINT rFoot
			{
				OFFSET 0.000000 -19.190928 -1.224953 
				CHANNELS 3 Xrotation Yrotation Zrotation
				End Site
				{
					OFFSET 0.000000 -2.449906 4.627600 
				}
			}
		}
	}
}
MOTION
Frames: 15
Frame Time: 0.016667
-0.160772 42.887680 0.947395 -7.398750 2.333940 -7.275390 -18.509701 -1.184350 0.705134 15.751500 3.727130 -0.059152 27.541531 0.917593 -13.672387 16.969400 12.108800 -3.007040 2.000000 -2.000000 0.000000 -86.236702 0.681984 166.932007 16.621300 -0.345851 0.039168 0.044685 0.004101 -135.457001 -2.000000 2.000000 0.000000 92.702003 2.978200 154.772003 -18.632999 0.344398 0.043684 -0.061806 -0.038429 -119.441002 -6.076916 -11.241660 0.308898 35.504150 2.484311 2.625507 -28.371151 11.010282 5.807315 -19.481108 0.644000 15.101604 45.531116 -2.372072 -3.109365 -21.492298 -2.454945 -0.841309 
-0.258379 42.835892 1.053091 -7.341110 2.518280 -7.101360 -18.510300 -1.247450 0.592459 15.770600 3.824550 -0.124605 26.909142 0.184479 -13.064101 16.771700 11.755700 -2.737450 2.000000 -2.000000 0.000000 -86.080299 0.515243 166.619995 16.465000 -0.345958 0.038811 0.044741 0.005905 -134.811996 -2.000000 2.000000 0.000000 92.672600 2.694990 154.772003 -18.808800 0.344263 0.044081 -0.061537 -0.037567 -119.764000 -6.116670 -11.279032 0.441341 35.720287 2.482258 2.640344 -28.433800 10.854613 5.705424 -19.310633 0.884173 14.202229 45.277851 -2.351233 -3.106451 -21.517328 -1.886690 -0.594745 
-0.368483 42.795799 1.184972 -7.193910 2.412520 -6.837350 -18.549700 -1.281440 0.501908 15.790500 3.756530 -0.166464 26.126362 -0.545393 -12.612446 16.432199 11.331900 -2.608650 2.000000 -2.000000 0.000000 -85.835503 0.141685 165.556000 16.123199 -0.346186 0.038028 0.044853 0.008418 -133.914001 -2.000000 2.000000 0.000000 92.770203 2.265390 154.731995 -18.955299 0.344150 0.044412 -0.061210 -0.036495 -120.164001 -6.233925 -11.011793 0.385681 36.044876 2.472557 2.660328 -28.625673 10.684345 5.692296 -18.931253 1.604551 14.192920 44.699566 -2.354796 -3.081146 -21.428114 -1.924794 -0.537533 
-0.478596 42.755707 1.316841 -7.046800 2.316370 -6.565320 -18.589100 -1.318860 0.402213 15.810500 3.678780 -0.207562 25.328457 -1.273311 -12.132042 16.084400 10.907000 -2.484710 2.000000 -2.000000 0.000000 -85.581001 -0.231862 164.492996 15.791200 -0.346404 0.037266 0.045005 0.010930 -133.016006 -2.000000 2.000000 0.000000 92.867798 1.845560 154.692001 -19.101801 0.344036 0.044743 -0.060883 -0.035394 -120.573997 -6.354468 -10.726870 0.348941 36.398056 2.475328 2.684288 -28.837120 10.522126 5.661848 -18.557411 2.333248 14.186875 44.129982 -2.364525 -3.038300 -21.328758 -1.969872 -0.473110 
-0.607654 42.779610 1.483234 -6.949460 2.394410 -6.219240 -18.619400 -1.446830 0.394552 15.909300 3.504100 -0.225544 25.103420 -1.676978 -11.951372 16.047701 10.745900 -2.418630 2.000000 -2.000000 0.000000 -85.258102 -0.732103 163.537003 15.488500 -0.346599 0.036571 0.045112 0.012402 -132.488007 -2.000000 2.000000 0.000000 93.042503 1.466940 153.645996 -18.945499 0.344158 0.044390 -0.061424 -0.037201 -119.900002 -6.162101 -10.632409 0.230203 36.259426 2.490601 2.671799 -28.778818 10.340285 5.537021 -18.098112 2.988174 15.816968 43.884506 -2.373104 -3.027307 -20.882021 -3.027733 -0.824165 
-0.736706 42.803516 1.649641 -6.852110 2.472470 -5.882670 -18.649799 -1.578200 0.377858 16.007999 3.319610 -0.234207 24.891138 -2.091524 -11.786209 16.011000 10.584700 -2.342590 2.000000 -2.000000 0.000000 -84.935204 -1.212780 162.591003 15.176000 -0.346796 0.035851 0.045233 0.013874 -131.960999 -2.000000 2.000000 0.000000 93.217102 1.098070 152.600006 -18.779499 0.344286 0.044015 -0.061987 -0.039002 -119.226997 -5.976626 -10.544291 0.134559 36.150238 2.504110 2.658573 -28.751455 10.148392 5.433782 -17.646248 3.622246 17.453297 43.649693 -2.378895 -3.034209 -20.451141 -4.067935 -1.177879 
-0.860711 42.829857 1.825607 -6.655770 2.298870 -5.346090 -18.640499 -1.629010 0.353497 16.224501 2.999230 -0.236554 24.619883 -2.282142 -11.721908 15.917700 10.492800 -2.351000 2.000000 -2.000000 0.000000 -84.865898 -1.635490 161.360992 15.127100 -0.346826 0.035739 0.045421 0.006123 -131.238007 -2.000000 2.000000 0.000000 93.313004 0.915894 150.998001 -18.369301 0.344598 0.043088 -0.062928 -0.041860 -118.152000 -5.961958 -10.259688 -0.419517 36.167336 2.519642 2.624131 -28.804304 10.179023 5.449831 -17.338604 4.144374 17.940083 43.277130 -2.378337 -3.012582 -20.247976 -4.682960 -1.402869 
-0.984707 42.856194 2.001596 -6.469310 2.125070 -4.811060 -18.631300 -1.689090 0.332240 16.431000 2.678600 -0.231988 24.369310 -2.460785 -11.644339 15.824500 10.400700 -2.367110 2.000000 -2.000000 0.000000 -84.786903 -2.058160 160.141006 15.068500 -0.346863 0.035604 0.045634 0.008136 -130.516006 -2.000000 2.000000 0.000000 93.408699 0.733644 149.406006 -17.959200 0.344903 0.042158 -0.063932 -0.044724 -117.068001 -5.839461 -9.979824 -1.010188 36.137630 2.532156 2.638317 -28.887123 10.156529 5.433684 -16.988432 4.630090 18.438648 42.953865 -2.376891 -2.999244 -20.126642 -5.305556 -1.600495 
-1.084893 42.896038 2.219050 -6.409800 1.902110 -4.188140 -18.776699 -1.585690 0.219227 16.313900 2.639240 -0.263877 24.298288 -2.913891 -11.592490 15.879000 10.274100 -2.343120 2.000000 -2.000000 0.000000 -85.011299 -1.960880 159.975006 15.371300 -0.346673 0.036301 0.045538 0.007266 -130.828003 -2.000000 2.000000 0.000000 93.133301 0.219250 147.841995 -17.510000 0.345229 0.041137 -0.065176 -0.048054 -115.799004 -5.554281 -9.837358 -2.064020 36.155323 2.550271 2.624253 -29.138506 10.655138 5.750082 -16.601473 4.771056 17.869707 42.707436 -2.397088 -2.982797 -20.202604 -5.472621 -1.705069 
-1.185078 42.935993 2.436503 -6.350390 1.679090 -3.575430 -18.922100 -1.482500 0.105548 16.206499 2.590180 -0.304190 24.217220 -3.362430 -11.553658 15.923600 10.148000 -2.322840 2.000000 -2.000000 0.000000 -85.235802 -1.863600 159.809006 15.674000 -0.346480 0.036997 0.045451 0.006423 -131.130997 -2.000000 2.000000 0.000000 92.877403 -0.304964 146.279007 -17.060699 0.345548 0.040113 -0.066483 -0.051331 -114.539001 -5.336961 -9.698668 -3.116630 36.279503 2.587557 2.614115 -29.453852 11.148520 6.054484 -16.222090 4.937849 17.297594 42.482117 -2.399358 -2.978478 -20.301506 -5.637720 -1.776244 
-1.302696 42.972878 2.615727 -6.261340 1.281380 -3.070230 -19.220800 -0.864813 0.001631 15.714600 3.308490 -0.299175 24.074238 -3.782337 -11.595950 15.940800 10.080300 -2.391880 2.000000 -2.000000 0.000000 -86.144096 -1.570210 159.994003 16.328300 -0.346050 0.038498 0.045219 0.013711 -132.018997 -2.000000 2.000000 0.000000 91.957100 -0.965611 144.539001 -16.689600 0.345805 0.039266 -0.067884 -0.054628 -113.260002 -5.151974 -9.210187 -3.731505 36.356609 2.600365 2.606608 -29.582775 11.172796 6.077921 -15.892399 5.217567 16.477829 42.088604 -2.420053 -2.954794 -20.254210 -5.578282 -1.772150 
-1.420304 43.009895 2.794962 -6.182380 0.883504 -2.566390 -19.531300 -0.255000 -0.096027 15.221100 4.035230 -0.307939 23.916920 -4.205304 -11.640193 15.967900 10.012300 -2.459270 2.000000 -2.000000 0.000000 -87.042702 -1.267080 160.169006 16.972799 -0.345609 0.039971 0.045028 0.011257 -132.897995 -2.000000 2.000000 0.000000 91.066002 -1.655650 142.809006 -16.308800 0.346063 0.038394 -0.069358 -0.057893 -111.980003 -5.079956 -8.741438 -4.318391 36.599125 2.635026 2.613311 -29.771788 11.173415 6.104095 -15.557775 5.493030 15.660560 41.686794 -2.416453 -2.932293 -20.225657 -5.531698 -1.753623 
-1.533776 43.044075 2.982062 -6.113400 0.349563 -2.049160 -19.580000 0.000341 -0.165937 15.270400 3.986930 -0.300018 23.721476 -4.113441 -11.557555 15.830700 10.055800 -2.484950 2.000000 -2.000000 0.000000 -87.453598 -1.001240 161.134995 18.027500 -0.344852 0.042371 0.044710 0.004976 -135.143997 -2.000000 2.000000 0.000000 90.664101 -1.995520 141.792999 -16.074400 0.346219 0.037857 -0.069999 -0.059254 -111.443001 -4.945539 -8.190849 -5.176530 36.794243 2.644713 2.613049 -30.036129 11.503428 6.345520 -15.122369 5.905615 14.896684 41.108547 -2.414269 -2.904077 -20.250374 -5.536564 -1.802335 
-1.647249 43.078384 3.169151 -6.044950 -0.184515 -1.542960 -19.619301 0.264749 -0.239498 15.319600 3.948340 -0.293067 23.519159 -4.029641 -11.483155 15.703300 10.099000 -2.509100 2.000000 -2.000000 0.000000 -87.854698 -0.725587 162.110992 19.082199 -0.344052 0.044757 0.044638 -0.001313 -137.391006 -2.000000 2.000000 0.000000 90.272003 -2.345180 140.766998 -15.840000 0.346372 0.037319 -0.070664 -0.060633 -110.896004 -4.876821 -7.650097 -6.024623 37.104240 2.689840 2.612402 -30.361454 11.849484 6.576880 -14.717307 6.355507 14.147679 40.656361 -2.432842 -2.880832 -20.366798 -5.554708 -1.820300 
-1.781762 43.098942 3.346252 -6.015990 -0.631270 -1.056520 -19.512100 0.375233 -0.195116 15.604800 3.706860 -0.233007 23.156971 -3.678497 -11.519765 15.485200 10.107100 -2.597330 2.000000 -2.000000 0.000000 -87.933800 -0.644369 163.468002 20.146700 -0.343199 0.047149 0.044813 -0.007600 -139.636993 -2.000000 2.000000 0.000000 90.221397 -2.362540 139.585007 -15.683800 0.346474 0.036961 -0.071959 -0.063226 -109.861000 -4.707085 -7.176519 -6.867775 37.269772 2.703465 2.614104 -30.696001 12.015017 6.748113 -14.301530 6.818493 13.500725 40.185844 -2.441381 -2.873587 -20.295073 -5.969020 -1.986529 
